<?xml version="1.0" standalone="no"?>
<!DOCTYPE svg PUBLIC "-//W3C//DTD SVG 20010904//EN"
 "http://www.w3.org/TR/2001/REC-SVG-20010904/DTD/svg10.dtd">
<svg version="1.0" xmlns="http://www.w3.org/2000/svg"
 width="500.000000pt" height="500.000000pt" viewBox="0 0 500.000000 500.000000"
 preserveAspectRatio="xMidYMid meet">
<metadata>
Created by potrace 1.14, written by Peter Selinger 2001-2017
</metadata>
<g transform="translate(0.000000,500.000000) scale(0.100000,-0.100000)"
fill="#000000" stroke="none">
<path d="M0 2500 l0 -2500 2500 0 2500 0 0 2500 0 2500 -2500 0 -2500 0 0
-2500z m3796 950 c139 -36 251 -101 363 -212 64 -63 171 -197 171 -214 0 -10
-267 -121 -273 -113 -1 2 -13 38 -26 79 -97 313 -282 463 -528 429 -79 -11
-120 -28 -168 -70 -48 -43 -65 -83 -65 -156 0 -111 57 -177 284 -332 l119 -81
529 0 528 0 0 -265 0 -265 -209 0 -210 0 25 -56 c82 -186 38 -425 -104 -555
-110 -101 -239 -143 -437 -143 -150 0 -227 13 -345 58 -194 72 -355 226 -479
457 l-42 77 141 77 c78 43 142 76 143 74 1 -2 12 -44 25 -93 56 -226 180 -423
326 -520 116 -77 274 -101 401 -61 80 25 155 98 176 170 21 73 16 153 -11 211
-28 58 -135 168 -241 247 l-76 57 -523 0 -523 0 6 -322 c4 -178 9 -338 13
-355 l6 -33 -227 0 -227 0 6 28 c9 40 26 407 26 555 l0 127 -217 -2 -216 -3
-152 -375 -152 -375 -38 0 -37 0 -164 375 -163 375 -232 3 -232 2 7 -292 c3
-161 9 -321 12 -355 l6 -63 -51 0 -52 0 6 33 c12 70 25 331 25 500 l0 177
-225 0 -225 0 0 265 0 265 225 0 225 0 0 148 c0 143 -14 404 -25 470 l-6 32
234 0 235 0 143 -325 144 -325 325 3 325 2 107 260 c59 143 120 288 134 323
l26 62 215 0 215 0 -6 -32 c-3 -18 -9 -165 -13 -325 l-6 -293 181 0 180 0 -34
68 c-129 254 -12 516 266 596 136 39 297 41 436 6z"/>
<path d="M2357 3288 c-3 -7 -51 -124 -105 -260 l-100 -248 109 0 109 0 0 260
c0 143 -2 260 -4 260 -2 0 -6 -6 -9 -12z"/>
<path d="M770 3037 l0 -257 115 0 c107 0 115 1 106 18 -5 9 -55 123 -111 252
-56 129 -104 237 -106 239 -2 2 -4 -111 -4 -252z"/>
<path d="M1728 2145 c26 -58 50 -105 53 -105 4 0 49 102 86 198 4 9 -18 12
-90 12 l-95 0 46 -105z"/>
</g>
</svg>
